<svg height="1024" viewBox="0 0 1024 1024" width="1024" xmlns="http://www.w3.org/2000/svg"><g fill="none" fill-rule="evenodd" transform="translate(255 128)"><rect fill="#5e5848" height="259" rx="37" width="513"/><g fill="#d6d5c4"><path d="m81.3932671 31.5460489c17.3200377-3.6973659 37.8556149-5.5460489 61.6067329-5.5460489s44.286695 1.848683 61.606733 5.5460489l-.000053.0002452c21.223462 4.5322645 36.392211 23.2813352 36.39332 44.9833337v153.4703722h-196l.0000001-153.4703722c.0011084-21.7019985 15.1698579-40.4510692 36.3933194-44.9833337z"/><path d="m308.393267 31.5460489c17.320038-3.6973659 37.855615-5.5460489 61.606733-5.5460489s44.286695 1.848683 61.606733 5.5460489l-.000053.0002452c21.223462 4.5322645 36.392211 23.2813352 36.39332 44.9833337v153.4703722h-196v-153.4703722c.001109-21.7019985 15.169858-40.4510692 36.39332-44.9833337z"/></g></g></svg>