<svg height="1024" viewBox="0 0 1024 1024" width="1024" xmlns="http://www.w3.org/2000/svg"><g fill="none" fill-rule="evenodd" transform="translate(214 189)"><rect fill="#5e5848" height="299" rx="37" width="595"/><g fill="#d6d5c4"><path d="m80.012413 43.5161531c23.080745-5.6774354 51.40994-8.5161531 84.987587-8.5161531s61.906842 2.8387177 84.987587 8.5161531l.000131-.000532c20.558781 5.0571287 35.010821 23.4936399 35.012282 44.6652721v181.8191068h-240l.0000001-181.8191068c.0014607-21.1716322 14.4535013-39.6081434 35.012282-44.6652721z"/><path d="m345.012413 43.5161531c23.080745-5.6774354 51.40994-8.5161531 84.987587-8.5161531s61.906842 2.8387177 84.987587 8.5161531l.000131-.000532c20.558781 5.0571287 35.010821 23.4936399 35.012282 44.6652721v181.8191068h-240v-181.8191068c.001461-21.1716322 14.453501-39.6081434 35.012282-44.6652721z"/></g></g></svg>