<svg height="1024" viewBox="0 0 1024 1024" width="1024" xmlns="http://www.w3.org/2000/svg"><g fill="none" fill-rule="evenodd" transform="translate(161 290)"><rect fill="#5e5848" height="353" rx="37" width="701"/><g fill="#d6d5c4"><path d="m77.8504097 43.4060895c29.9599023-8.937393 68.0097663-13.4060895 114.1495903-13.4060895s84.189688 4.4686965 114.14959 13.4060895l.000011-.0000343c19.491438 5.8144712 32.850186 23.7397764 32.850399 44.0799892v236.5139556h-294v-236.5139556c.0002135-20.3402128 13.3589608-38.265518 32.8503995-44.0799892z"/><path d="m394.85041 43.4060895c29.959902-8.937393 68.009766-13.4060895 114.14959-13.4060895s84.189688 4.4686965 114.14959 13.4060895l.000011-.0000343c19.491438 5.8144712 32.850186 23.7397764 32.850399 44.0799892v236.5139556h-294v-236.5139556c.000213-20.3402128 13.358961-38.265518 32.850399-44.0799892z"/></g></g></svg>