<svg height="1024" viewBox="0 0 1024 1024" width="1024" xmlns="http://www.w3.org/2000/svg"><g fill="none" fill-rule="evenodd" transform="translate(126 445)"><rect fill="#5e5848" height="387" rx="37" width="771"/><g fill="#d6d5c4"><path d="m76.0519983 46.5015981c34.5699367-11.0010654 79.2192707-16.5015981 133.9480017-16.5015981s99.378065 5.5005327 133.948002 16.5015981l.000105-.0003293c19.089811 6.074385 32.053378 23.8048117 32.051893 43.8377611v267.6609701h-332l.0000001-267.6609701c-.0014851-20.0329494 12.9620816-37.7633761 32.0518934-43.8377611z"/><path d="m428.051998 46.5015981c34.569937-11.0010654 79.219271-16.5015981 133.948002-16.5015981s99.378065 5.5005327 133.948002 16.5015981l.000105-.0003293c19.089811 6.074385 32.053378 23.8048117 32.051893 43.8377611v267.6609701h-332v-267.6609701c-.001485-20.0329494 12.962082-37.7633761 32.051893-43.8377611z"/></g></g></svg>